<svg xmlns="http://www.w3.org/2000/svg" viewBox="0 0 40.83 40.83">
  <defs>
    <style>
      .cls-1, .cls-2 {
        fill: #42210b;
      }

      .cls-1 {
        opacity: 0.1;
      }
    </style>
  </defs>
  <title>Asset 8</title>
  <g id="Layer_2" data-name="Layer 2">
    <g id="old">
      <circle class="cls-1" cx="20.42" cy="20.42" r="20.42"/>
      <g>
        <g>
          <rect class="cls-2" x="23.48" y="11.56" width="2.62" height="0.23" transform="translate(-0.37 22.54) rotate(-48.58)"/>
          <rect class="cls-2" x="24.4" y="11.56" width="2.62" height="0.23" transform="translate(-0.06 23.24) rotate(-48.59)"/>
          <path class="cls-2" d="M33.58,14.46a1,1,0,0,0-.47.13,6,6,0,1,0-.64,3.53V29.33h.69v-13a1,1,0,1,0,.42-1.89Zm-6.43,6.18a5.32,5.32,0,1,1,5.32-5.32A5.33,5.33,0,0,1,27.15,20.64ZM33.58,16a.54.54,0,0,1-.42-.22v-.45c0-.06,0-.11,0-.17a.55.55,0,0,1,.43-.23.54.54,0,0,1,0,1.07Z"/>
        </g>
        <path class="cls-2" d="M23.68,28.14h0a3.53,3.53,0,0,0-.41-.34,1.61,1.61,0,0,0-.26-.15l0,0-.3-.14a2.81,2.81,0,0,0-.85-.18,2.33,2.33,0,0,0-2.15.91,2.29,2.29,0,0,0-2.2-.94,2.57,2.57,0,0,0-.85.2l-.29.14,0,0a1.13,1.13,0,0,0-.26.16,2.66,2.66,0,0,0-.4.34h0c-1.79,1.6-3.23-.73-4.52.91,1.36-.22,2.1,2.49,5.12,2.34A6.43,6.43,0,0,0,18.36,31a2.57,2.57,0,0,0,1.28-1.06A2.54,2.54,0,0,0,21,31a6.09,6.09,0,0,0,2.15.4c3,.1,3.73-2.62,5.08-2.42C26.89,27.36,25.49,29.71,23.68,28.14Z"/>
      </g>
    </g>
  </g>
</svg>
