<svg id="Layer_1" data-name="Layer 1" xmlns="http://www.w3.org/2000/svg" xmlns:xlink="http://www.w3.org/1999/xlink" viewBox="0 0 1280 2152">
  <defs>
    <style>
      .cls-1 {
        fill: url(#linear-gradient);
      }

      .cls-2 {
        fill: url(#linear-gradient-2);
      }

      .cls-3 {
        fill: url(#linear-gradient-3);
      }
    </style>
    <linearGradient id="linear-gradient" x1="173.69" y1="1401.47" x2="630.19" y2="2116.19" gradientTransform="translate(1032.05 3799.59) rotate(-169.26)" gradientUnits="userSpaceOnUse">
      <stop offset="0" stop-color="#96cbc7"/>
      <stop offset="0.26" stop-color="#96cbc7"/>
      <stop offset="0.3" stop-color="#96cbc7"/>
      <stop offset="0.41" stop-color="#a8d3cf"/>
      <stop offset="0.63" stop-color="#d6e6e5"/>
      <stop offset="0.75" stop-color="#f2f2f2"/>
      <stop offset="0.79" stop-color="#f0f0f0" stop-opacity="0.85"/>
      <stop offset="0.89" stop-color="#ebebeb" stop-opacity="0.45"/>
      <stop offset="0.97" stop-color="#e7e7e7" stop-opacity="0.2"/>
      <stop offset="1" stop-color="#e6e6e6" stop-opacity="0.1"/>
    </linearGradient>
    <linearGradient id="linear-gradient-2" x1="1386.23" y1="1453.64" x2="1467.14" y2="1580.31" gradientTransform="matrix(-0.95, -0.3, 0.3, -0.95, 945.93, 3566.11)" gradientUnits="userSpaceOnUse">
      <stop offset="0" stop-color="#96cbc7" stop-opacity="0.9"/>
      <stop offset="0.12" stop-color="#96cbc7" stop-opacity="0.89"/>
      <stop offset="0.19" stop-color="#96cbc7" stop-opacity="0.84"/>
      <stop offset="0.26" stop-color="#96cbc7" stop-opacity="0.77"/>
      <stop offset="0.3" stop-color="#96cbc7" stop-opacity="0.7"/>
      <stop offset="0.38" stop-color="#a2d0cd" stop-opacity="0.74"/>
      <stop offset="0.53" stop-color="#c1dddb" stop-opacity="0.84"/>
      <stop offset="0.75" stop-color="#f2f2f2"/>
      <stop offset="0.79" stop-color="#f0f0f0" stop-opacity="0.85"/>
      <stop offset="0.89" stop-color="#ebebeb" stop-opacity="0.45"/>
      <stop offset="0.97" stop-color="#e7e7e7" stop-opacity="0.2"/>
      <stop offset="1" stop-color="#e6e6e6" stop-opacity="0.1"/>
    </linearGradient>
    <linearGradient id="linear-gradient-3" x1="1424.91" y1="1965.74" x2="1445.25" y2="1997.59" gradientTransform="matrix(-0.28, -0.96, 0.96, -0.28, -1410.48, 3503.14)" xlink:href="#linear-gradient"/>
  </defs>
  <g>
    <path class="cls-1" d="M450.84,2520.85c194,97.59,434.24,11.66,536.7-191.95q3.78-7.52,7.24-15.1a62.2,62.2,0,0,0,18.37,6.61c47.47,9,96.48-39.11,109.45-107.48a176.25,176.25,0,0,0,3-41.51c99.73-2.82,210.83-43.76,308.84-121.87,193-153.84,262.23-393.58,154.53-535.47s-351.5-132.2-544.54,21.65c-94.83,75.57-159.77,171.88-188.53,267.12a381.64,381.64,0,0,0-34-19.34c-193.95-97.6-434.23-11.66-536.7,192S256.9,2423.25,450.84,2520.85Z"/>
    <path class="cls-2" d="M-56.68,1700.74c-11.51,17.55-7,40.82,10,52s40.15,6,51.65-11.57c.28-.41.53-.83.78-1.25a72.65,72.65,0,0,0,12.8,10.68c34.24,22.45,80.76,12,103.91-23.27s14.14-82.12-20.1-104.57-80.76-12-103.9,23.27a77.93,77.93,0,0,0-12.75,38.83C-29.69,1680.18-47.16,1686.22-56.68,1700.74Z"/>
    <ellipse class="cls-3" cx="99.87" cy="1578.22" rx="19.22" ry="18.64" transform="translate(-1076.48 521.35) rotate(-44.44)"/>
  </g>
</svg>
