<svg id="Layer_1" data-name="Layer 1" xmlns="http://www.w3.org/2000/svg" xmlns:xlink="http://www.w3.org/1999/xlink" viewBox="0 0 1280 2152">
  <defs>
    <style>
      .cls-1 {
        fill: url(#linear-gradient);
      }

      .cls-2 {
        fill: url(#linear-gradient-2);
      }

      .cls-3 {
        fill: url(#linear-gradient-3);
      }

      .cls-4 {
        fill: url(#linear-gradient-4);
      }
    </style>
    <linearGradient id="linear-gradient" x1="-113.43" y1="-61.91" x2="343.07" y2="652.82" gradientTransform="translate(-54.46 44.94) rotate(-12.43)" gradientUnits="userSpaceOnUse">
      <stop offset="0" stop-color="#96cbc7"/>
      <stop offset="0.26" stop-color="#96cbc7"/>
      <stop offset="0.3" stop-color="#96cbc7"/>
      <stop offset="0.41" stop-color="#a8d3cf"/>
      <stop offset="0.63" stop-color="#d6e6e5"/>
      <stop offset="0.75" stop-color="#f2f2f2"/>
      <stop offset="0.79" stop-color="#f0f0f0" stop-opacity="0.85"/>
      <stop offset="0.89" stop-color="#ebebeb" stop-opacity="0.45"/>
      <stop offset="0.97" stop-color="#e7e7e7" stop-opacity="0.2"/>
      <stop offset="1" stop-color="#e6e6e6" stop-opacity="0.1"/>
    </linearGradient>
    <linearGradient id="linear-gradient-2" x1="216.14" y1="686.46" x2="242.95" y2="728.44" gradientTransform="translate(939.03 271.06) rotate(74.03)" xlink:href="#linear-gradient"/>
    <linearGradient id="linear-gradient-3" x1="-23.96" y1="941.28" x2="56.95" y2="1067.95" xlink:href="#linear-gradient"/>
    <linearGradient id="linear-gradient-4" x1="84.6" y1="1045.45" x2="104.95" y2="1077.3" gradientTransform="translate(1260.95 677.88) rotate(74.03)" xlink:href="#linear-gradient"/>
  </defs>
  <g>
    <path class="cls-1" d="M387.65-375.49C170.94-388.88-16.13-215.31-30.19,12.19c-.35,5.6-.58,11.18-.72,16.73a62.07,62.07,0,0,0-19.48,1.15C-97.58,40.47-123.69,104-108.71,172A176.64,176.64,0,0,0-95.1,211.29C-185.67,253.12-271.69,334.48-331,444.86c-116.92,217.4-86.17,465,68.68,553.07s375.16-16.8,492.08-234.2C287.14,656.93,308.94,542.84,297.9,444a380.73,380.73,0,0,0,38.83,4.42C553.44,461.77,740.52,288.2,754.58,60.69S604.36-362.09,387.65-375.49Z"/>
    <ellipse class="cls-2" cx="322.03" cy="686.38" rx="25.33" ry="24.57" transform="translate(-382.91 965.47) rotate(-86.46)"/>
    <path class="cls-3" d="M253.48,971.38c1.29-21-14.13-38.94-34.44-40.2s-37.84,14.71-39.13,35.65c0,.5,0,1-.06,1.48a71.94,71.94,0,0,0-16.41-2.93c-40.86-2.53-76.1,29.58-78.71,71.71s28.42,78.33,69.28,80.85,76.11-29.58,78.71-71.71a77.82,77.82,0,0,0-8.18-40C240.22,1002.62,252.41,988.71,253.48,971.38Z"/>
    <ellipse class="cls-4" cx="266.61" cy="1061.02" rx="19.22" ry="18.64" transform="translate(-808.83 1261.67) rotate(-86.46)"/>
  </g>
</svg>
