<svg xmlns="http://www.w3.org/2000/svg" viewBox="0 0 25.03 19.43">
  <defs>
    <style>
      .cls-1 {
        fill: #c7b299;
        stroke: #998675;
        stroke-miterlimit: 10;
        opacity: 0.79;
      }

      .cls-2 {
        fill: #42210b;
      }
    </style>
  </defs>
  <title>Asset 9</title>
  <g id="Layer_2" data-name="Layer 2">
    <g id="old">
      <circle class="cls-1" cx="12.58" cy="9.71" r="9.21"/>
      <g>
        <g>
          <rect class="cls-2" x="13.44" y="3.15" width="1.94" height="0.17" transform="translate(2.45 11.9) rotate(-48.58)"/>
          <rect class="cls-2" x="14.12" y="3.15" width="1.94" height="0.17" transform="translate(2.68 12.41) rotate(-48.59)"/>
          <path class="cls-2" d="M20.91,5.29a.67.67,0,0,0-.34.1A4.45,4.45,0,1,0,20.09,8v6h.51V6.69a.82.82,0,0,0,.31.07.74.74,0,1,0,0-1.47ZM16.16,9.86a3.94,3.94,0,1,1,3.93-3.93A3.94,3.94,0,0,1,16.16,9.86Zm4.75-3.44a.43.43,0,0,1-.31-.16V5.8a.38.38,0,0,1,.31-.17.4.4,0,1,1,0,.79Z"/>
        </g>
        <path class="cls-2" d="M18.4,12.16h0a3.62,3.62,0,0,0-.6-.5,2.3,2.3,0,0,0-.37-.23l-.07,0a3.3,3.3,0,0,0-.43-.19,3.91,3.91,0,0,0-1.25-.28,3.41,3.41,0,0,0-3.14,1.33,3.38,3.38,0,0,0-3.21-1.37,3.8,3.8,0,0,0-1.24.29,4.48,4.48,0,0,0-.44.2l-.06,0a2.62,2.62,0,0,0-.37.24,3.23,3.23,0,0,0-.59.51h0C4,14.5,1.88,11.09,0,13.48c2-.31,3.07,3.64,7.49,3.43a8.94,8.94,0,0,0,3.14-.64,3.74,3.74,0,0,0,1.87-1.53,3.75,3.75,0,0,0,1.94,1.59,9.13,9.13,0,0,0,3.15.59C22,17.07,23,13.1,25,13.38,23.11,11,21.06,14.46,18.4,12.16Z"/>
      </g>
    </g>
  </g>
</svg>
